<svg xmlns="http://www.w3.org/2000/svg" width="26.132" height="26.008" viewBox="0 0 26.132 26.008"><defs><style>.a{fill:#8782d9;}</style></defs><g transform="translate(0.32 0.319)"><path class="a" d="M14.739,20.99V15.137h9.826l1.568-2.091-1.568-2.091H14.739V6.774H20.8l1.568-2.091L20.8,2.593H14.739V1.115L13.066,0,11.394,1.115V2.593H5.331L3.763,4.684,5.331,6.774h6.063v5.854H1.568L0,14.718l1.568,2.091h9.826v5.854H6.911l-.836,2.509h-4.3v.836H24.355v-.836h-4.3l-.836-2.509H14.739v-.836H13.9v.836H12.23V6.774H13.9V20.99Zm4.437,4.181H6.956L7.514,23.5h11.1ZM12.23,1.562,13.066,1l.836.557V2.593H12.23ZM4.808,4.684Z" transform="translate(-0.32 -0.319)"/></g></svg>