<svg xmlns="http://www.w3.org/2000/svg" width="83.829" height="83.792" viewBox="0 0 83.829 83.792"><defs><style>.a{fill:#f0f0f0;}.b{fill:#404040;}</style></defs><g transform="translate(0 -0.114)"><g transform="translate(1.228 6.977)"><path class="a" d="M88.873,117.77V45.307A3.275,3.275,0,0,0,85.6,42.032H10.775A3.275,3.275,0,0,0,7.5,45.307V117.77Z" transform="translate(-7.5 -42.032)"/><path class="a" d="M451.049,42.032H444.5a3.275,3.275,0,0,1,3.275,3.275V117.77h6.549V45.307a3.275,3.275,0,0,0-3.275-3.275Z" transform="translate(-372.951 -42.032)"/></g><g transform="translate(0 0.114)"><path class="b" d="M54.541,35.76a1.228,1.228,0,0,0-1.228-1.228H4.5a4.508,4.508,0,0,0-4.5,4.5V111.5a1.229,1.229,0,0,0,2.456,0V39.035A2.049,2.049,0,0,1,4.5,36.988h48.81A1.228,1.228,0,0,0,54.541,35.76Z" transform="translate(0 -28.897)"/><path class="b" d="M377.9,5.749h-2.809V5.388A5.28,5.28,0,0,0,369.813.114H362.3a5.28,5.28,0,0,0-5.274,5.274v33.2a7.408,7.408,0,0,0,14.816,0v-22.8c0-5.447-8.466-5.484-8.466,0V30.022a1.229,1.229,0,0,0,2.456,0V15.787c0-2.223,3.554-2.325,3.554,0v22.8a4.952,4.952,0,0,1-9.9,0V8.205H377.9a2.049,2.049,0,0,1,2.047,2.047V82.715a1.229,1.229,0,0,0,2.456,0V10.252a4.508,4.508,0,0,0-4.5-4.5ZM359.48,5.388A2.821,2.821,0,0,1,362.3,2.57h7.515a2.821,2.821,0,0,1,2.818,2.818v.362H359.48Z" transform="translate(-298.569 -0.114)"/><path class="b" d="M110.258,207.753H77.215a1.229,1.229,0,0,0,0,2.456h33.043A1.229,1.229,0,0,0,110.258,207.753Z" transform="translate(-63.577 -173.757)"/><path class="b" d="M110.258,283.025H77.215a1.229,1.229,0,0,0,0,2.456h33.043A1.229,1.229,0,0,0,110.258,283.025Z" transform="translate(-63.577 -236.704)"/><path class="b" d="M133.768,358.3H77.215a1.229,1.229,0,0,0,0,2.456h56.553A1.229,1.229,0,0,0,133.768,358.3Z" transform="translate(-63.577 -299.652)"/><path class="b" d="M211.788,433.569h0c-13.713.007-27.612.007-41.309,0a1.23,1.23,0,0,0,0,2.456c6.849,0,13.749.006,20.65.006s13.8,0,20.662-.006A1.229,1.229,0,0,0,211.788,433.569Z" transform="translate(-141.597 -362.6)"/><path class="b" d="M84.754,433.569h0c-2.494.007-4.971.007-7.364,0a1.23,1.23,0,0,0-.008,2.456c1.2,0,6.13,0,7.379,0A1.229,1.229,0,0,0,84.754,433.569Z" transform="translate(-63.745 -362.6)"/></g></g></svg>