<svg xmlns="http://www.w3.org/2000/svg" width="23.985" height="20.723" viewBox="0 0 23.985 20.723"><defs><style>.a{fill:#827cdf;}</style></defs><g transform="translate(0 1.649)"><g transform="translate(0 -1.649)"><path class="a" d="M12.24,242.8a2.988,2.988,0,0,1-1.875-.7L6.9,239.05a1.526,1.526,0,0,0-1.971-.1L0,242.578v2.352a1.144,1.144,0,0,0,1.078,1.207c.032,0,.065,0,.1,0H18.629a1.338,1.338,0,0,0,1.4-1.208v-6.167l-6.262,3.624A2.893,2.893,0,0,1,12.24,242.8Z" transform="translate(0 -225.416)"/><circle class="a" cx="1.399" cy="1.399" r="1.399" transform="translate(10.769 8.254)"/><path class="a" d="M76.708,28.932a1.2,1.2,0,0,0-.874-.485L58.2,26.408a1.288,1.288,0,0,0-1.456,1.1l-.291,2.524H71.92a2.782,2.782,0,0,1,2.718,2.685V44.138c0-.065.291-.129.421-.259a1.1,1.1,0,0,0,.421-.874L77,29.87A1.262,1.262,0,0,0,76.708,28.932Z" transform="translate(-53.02 -26.403)"/><path class="a" d="M18.657,105.9H1.206A1.308,1.308,0,0,0,.03,107.3v9.316l4.2-3.138a2.738,2.738,0,0,1,3.528.163l3.5,3.138a1.586,1.586,0,0,0,1.875.163l6.929-4.151V107.3A1.482,1.482,0,0,0,18.657,105.9Zm-6.643,7.551a2.747,2.747,0,1,1,2.67-2.746A2.709,2.709,0,0,1,12.013,113.45Z" transform="translate(-0.028 -101.062)"/></g></g></svg>