<svg xmlns="http://www.w3.org/2000/svg" width="25.218" height="23.117" viewBox="0 0 25.218 23.117"><defs><style>.a{fill:#7b77aa;}</style></defs><g transform="translate(0 -0.492)"><path class="a" d="M6.567,159.48A3.934,3.934,0,0,1,2.845,156.8l-.037-.121a3.835,3.835,0,0,1-.182-1.139v-7.164L.077,156.884a2.386,2.386,0,0,0,1.673,2.895L18,164.131a2.411,2.411,0,0,0,.605.078,2.343,2.343,0,0,0,2.271-1.718l.947-3.01Zm0,0" transform="translate(0 -140.599)"/><path class="a" d="M151.422,68.7a2.1,2.1,0,1,0-2.1-2.1A2.1,2.1,0,0,0,151.422,68.7Zm0,0" transform="translate(-141.965 -60.847)"/><path class="a" d="M103.709.492H87.947A2.631,2.631,0,0,0,85.32,3.119V14.678A2.631,2.631,0,0,0,87.947,17.3h15.762a2.631,2.631,0,0,0,2.627-2.627V3.119A2.631,2.631,0,0,0,103.709.492Zm-15.762,2.1h15.762a.526.526,0,0,1,.525.525v7.46l-3.319-3.873a1.882,1.882,0,0,0-1.409-.646,1.837,1.837,0,0,0-1.4.663l-3.9,4.684-1.271-1.268a1.844,1.844,0,0,0-2.606,0l-2.9,2.9V3.119A.525.525,0,0,1,87.947,2.594Zm0,0" transform="translate(-81.118)"/></g></svg>