<svg xmlns="http://www.w3.org/2000/svg" width="24.773" height="17.419" viewBox="0 0 24.773 17.419"><defs><style>.a{fill:#7b77aa;}.b{fill:#282461;}</style></defs><g transform="translate(0 -76)"><path class="a" d="M24.773,77.452V76H0v1.452H2.952V78.9H0V93.419H24.773V78.9H21.822V77.452ZM10.209,78.9V77.452h4.355V78.9ZM4.4,77.452H8.758V78.9H4.4ZM23.322,91.967H1.452V80.355h21.87ZM20.37,78.9H16.016V77.452H20.37Z"/><rect class="a" width="23" height="13" transform="translate(1 80)"/><path class="b" d="M69.561,215.614l-4.078-8.155-1.814,3.629-1.089-2.177-3.352,6.7Zm-7.984-1.452,1-2.006,1,2.006Zm2.9-1.452,1-2.006,1.729,3.458H65.207Z" transform="translate(-56.363 -125.098)"/><path class="b" d="M301,346h3.884v1.452H301Z" transform="translate(-286.436 -256.936)"/><path class="b" d="M301,286h7.258v1.452H301Z" transform="translate(-286.436 -199.839)"/><path class="b" d="M301,226h7.258v1.452H301Z" transform="translate(-286.436 -142.742)"/></g></svg>